:SAMPLES-PER-SECOND 30
:FULLY-SPECIFIED
:DEGREES
292
root  -2.95219 40.9084 1.06889 172.265 -79.8625 -173.272
RightUpLeg  3.91484 -0.831356 -1.04846
RightLeg  -0.999637 -10.5312 0.173017
RightFoot  -0.47913 -0.40364 4.20745
RightToes  -3.13006e-008 1.75238e-005 3.56266e-009
Spine  -6.83009 -3.48916 -3.25604
Spine1  17.6026 -2.94405 -1.82597
HEad  -12.9496 -63.2336 6.6821
LeftShoulder1  2.1547 -3.76558 -23.3876
LeftArm  -49.6767 24.8528 -53.4992
LeftForeArm  139.865 -59.9526 -160.156
LeftHand  0.802471 -6.65305 -7.3766
RightShoulder  0.903676 0.605183 15.2836
RightArm  -71.6737 1.41501 5.66673
RightForeArm  9.31492 76.3531 62.2874
RightHand  -1.19522 7.25292 -11.2527
LeftUpLeg  5.27157 2.28807 2.70335
LeftLeg  -0.340211 21.0935 -0.612459
LeftFoot  -2.39015 0.224161 -2.62179
LeftToes  4.76866e-008 1.46233e-008 1.30548e-009
293
root  -3.00659 40.905 1.04681 171.782 -79.7111 -172.808
RightUpLeg  4.09836 -0.826971 -0.957537
RightLeg  -1.15787 -10.4217 0.281076
RightFoot  -0.478813 -0.393388 4.09991
RightToes  -3.13006e-008 1.75238e-005 3.56266e-009
Spine  -7.45256 -3.42736 -3.43849
Spine1  17.6842 -3.0069 -1.37817
HEad  -9.38916 -59.3283 3.63475
LeftShoulder1  2.18039 -3.77862 -23.7027
LeftArm  -49.0109 23.2742 -52.0864
LeftForeArm  139.397 -60.5111 -159.694
LeftHand  0.896254 -6.45251 -8.41305
RightShoulder  1.00494 0.976331 15.7471
RightArm  -67.9803 1.62809 6.50201
RightForeArm  26.654 77.6595 78.7785
RightHand  -0.977056 7.02026 -9.46371
LeftUpLeg  5.40478 2.35689 2.81721
LeftLeg  -0.315147 21.1486 -0.551076
LeftFoot  -2.49225 0.231624 -2.74495
LeftToes  4.76866e-008 1.46233e-008 1.30548e-009
294
root  -3.05716 40.8988 1.02165 171.677 -79.5616 -172.814
RightUpLeg  4.22262 -0.813491 -0.904434
RightLeg  -1.01297 -10.2809 0.244477
RightFoot  -0.657666 -0.375484 3.96563
RightToes  -3.13006e-008 1.75238e-005 3.56266e-009
Spine  -8.04436 -3.28811 -3.71315
Spine1  17.9162 -3.00741 -0.817077
HEad  -6.71216 -52.3578 2.0828
LeftShoulder1  2.26434 -3.94988 -24.1617
LeftArm  -48.0458 21.7809 -50.9425
LeftForeArm  140.249 -61.0232 -159.369
LeftHand  0.814771 -6.63693 -7.50119
RightShoulder  1.16866 1.58819 16.3298
RightArm  -64.6634 1.65353 7.43516
RightForeArm  45.3076 77.7035 98.9826
RightHand  -1.0616 7.57097 -9.83305
LeftUpLeg  5.74477 2.3431 2.82283
LeftLeg  -0.550433 21.3243 -0.553959
LeftFoot  -2.4864 0.233739 -2.78388
LeftToes  4.76866e-008 1.46233e-008 1.30548e-009
295
root  -3.09096 40.8918 0.993512 171.538 -79.5657 -172.769
RightUpLeg  4.31716 -0.729332 -0.807638
RightLeg  -0.852523 -10.3873 0.143728
RightFoot  -0.828558 -0.372877 3.98836
RightToes  -3.13006e-008 1.75238e-005 3.56266e-009
Spine  -8.60877 -3.04347 -3.91393
Spine1  18.1715 -2.87858 -0.327913
HEad  -5.32093 -43.1644 2.92176
LeftShoulder1  2.36937 -4.17408 -24.6728
LeftArm  -46.6465 20.1344 -49.7528
LeftForeArm  140.346 -61.5068 -158.988
LeftHand  0.726831 -6.78596 -6.55983
RightShoulder  1.2559 1.74152 17.3691
RightArm  -61.8113 2.43248 9.03645
RightForeArm  58.7944 76.0917 118.299
RightHand  -0.969854 6.99543 -9.40462
LeftUpLeg  5.90237 2.33533 2.84002
LeftLeg  -0.519905 21.3216 -0.47418
LeftFoot  -2.55588 0.240729 -2.89768
LeftToes  4.76866e-008 1.46233e-008 1.30548e-009
296
root  -3.11671 40.8842 0.965569 172.039 -79.5949 -173.315
RightUpLeg  4.30807 -0.671714 -0.804553
RightLeg  -0.642341 -10.4827 -0.00925748
RightFoot  -0.994418 -0.352927 3.82129
RightToes  -3.13006e-008 1.75238e-005 3.56266e-009
Spine  -9.05725 -2.84712 -3.81745
Spine1  18.2015 -2.63312 -0.412303
HEad  -3.85592 -32.7889 4.63547
LeftShoulder1  2.40538 -4.26735 -24.7624
LeftArm  -45.7602 18.5929 -49.4513
LeftForeArm  140.258 -61.8564 -158.692
LeftHand  0.750073 -6.80571 -6.77419
RightShoulder  1.54758 2.60544 18.9041
RightArm  -58.2162 1.49422 10.4819
RightForeArm  66.4461 72.9935 133.622
RightHand  -0.841039 6.6549 -8.4346
LeftUpLeg  6.02255 2.28863 2.75583
LeftLeg  -0.586624 21.3474 -0.474692
LeftFoot  -2.57662 0.248621 -3.02463
LeftToes  4.76866e-008 1.46233e-008 1.30548e-009
297
root  -3.15103 40.8821 0.941237 172.228 -79.885 -173.579
RightUpLeg  4.4841 -0.715302 -0.856549
RightLeg  -0.629551 -10.6681 -0.0359128
RightFoot  -1.14248 -0.356071 3.89873
RightToes  -3.13006e-008 1.75238e-005 3.56266e-009
Spine  -8.99414 -2.53868 -3.8984
Spine1  17.5141 -2.44444 0.0553925
HEad  -2.91903 -22.5696 6.11595
LeftShoulder1  2.54709 -4.54751 -25.4868
LeftArm  -44.8418 17.0712 -49.3392
LeftForeArm  141.175 -61.9348 -158.71
LeftHand  0.75169 -7.27995 -6.50574
RightShoulder  1.75796 3.27377 19.5571
RightArm  -53.3434 -0.80962 13.0731
RightForeArm  75.2447 69.1989 144.118
RightHand  -0.748623 5.82639 -8.06915
LeftUpLeg  6.16068 2.24645 2.70362
LeftLeg  -0.663983 21.094 -0.482275
LeftFoot  -2.60208 0.251619 -3.07461
LeftToes  4.76866e-008 1.46233e-008 1.30548e-009
298
root  -3.19713 40.8835 0.921724 171.968 -80.4704 -173.426
RightUpLeg  4.87121 -0.805421 -0.877333
RightLeg  -0.865222 -11.1311 0.0229401
RightFoot  -1.18858 -0.351912 3.8597
RightToes  -3.13006e-008 1.75238e-005 3.56266e-009
Spine  -9.10154 -2.14995 -3.74264
Spine1  17.3519 -2.0965 0.249479
HEad  -2.51532 -13.4339 8.37332
LeftShoulder1  2.56069 -4.513 -25.7995
LeftArm  -43.4986 15.3129 -49.9786
LeftForeArm  142.089 -61.9537 -158.779
LeftHand  0.83447 -7.45354 -7.15502
RightShoulder  1.80566 3.19552 20.6377
RightArm  -47.8328 -3.46932 15.5885
RightForeArm  84.0723 65.5778 150.495
RightHand  -0.535854 6.25725 -5.63466
LeftUpLeg  6.33265 2.20206 2.69363
LeftLeg  -0.771539 20.5372 -0.475454
LeftFoot  -2.56449 0.252631 -3.09292
LeftToes  4.76866e-008 1.46233e-008 1.30548e-009
